HIERARCHY
ROOT pelvis
{
  OFFSET 0.000000000 0.000000000 0.000000000
  CHANNELS 6 Xposition Yposition Zposition Zrotation Yrotation Xrotation
  JOINT Spine
  {
    OFFSET 0.000000000 7.098910000 -4.732610000
    CHANNELS 3 Zrotation Yrotation Xrotation
    JOINT Spine1
    {
      OFFSET 0.000000000 9.321421820 -1.643618918
      CHANNELS 3 Zrotation Yrotation Xrotation
      JOINT Spine2
      {
        OFFSET 0.000000000 9.429201273 -0.824953336
        CHANNELS 3 Zrotation Yrotation Xrotation
        JOINT Spine3
        {
          OFFSET 0.000000000 9.465219566 -0.000009457
          CHANNELS 3 Zrotation Yrotation Xrotation
          JOINT Neck
          {
            OFFSET 0.000000000 24.846202406 3.549435011
            CHANNELS 3 Zrotation Yrotation Xrotation
            JOINT Head
            {
              OFFSET 0.000000000 12.816978830 2.259967009
              CHANNELS 3 Zrotation Yrotation Xrotation
              End Site
              {
                OFFSET 0.0 5.0 0.0
              }
            }
          }
          JOINT RightShoulder
          {
            OFFSET -3.199490000 17.277204535 5.332462492
            CHANNELS 3 Zrotation Yrotation Xrotation
            JOINT RightArm
            {
              OFFSET -15.890800000 -0.000005505 0.000000000
              CHANNELS 3 Zrotation Yrotation Xrotation
              JOINT RightForeArm
              {
                OFFSET -29.543600000 -0.000010234 0.000000000
                CHANNELS 3 Zrotation Yrotation Xrotation
                JOINT RightHand
                {
                  OFFSET -23.265200000 -0.000008059 0.000000000
                  CHANNELS 3 Zrotation Yrotation Xrotation
                  JOINT RightHandEnd
                  {
                    OFFSET -6.961150000 -0.000002411 0.000000000
                    CHANNELS 3 Zrotation Yrotation Xrotation
                    End Site
                    {
                      OFFSET 0.0 5.0 0.0
                    }
                  }
                  JOINT RightHandThumb1
                  {
                    OFFSET -2.784459357 -1.856306242 4.640771642
                    CHANNELS 3 Zrotation Yrotation Xrotation
                    End Site
                    {
                      OFFSET 0.0 5.0 0.0
                    }
                  }
                }
              }
            }
          }
          JOINT LeftShoulder
          {
            OFFSET 3.199490000 17.277204535 5.332462492
            CHANNELS 3 Zrotation Yrotation Xrotation
            JOINT LeftArm
            {
              OFFSET 15.890800000 0.000000000 0.000000000
              CHANNELS 3 Zrotation Yrotation Xrotation
              JOINT LeftForeArm
              {
                OFFSET 29.543600000 0.000000000 0.000000000
                CHANNELS 3 Zrotation Yrotation Xrotation
                JOINT LeftHand
                {
                  OFFSET 23.265200000 0.000000000 0.000000000
                  CHANNELS 3 Zrotation Yrotation Xrotation
                  JOINT LeftHandEnd
                  {
                    OFFSET 6.961150000 0.000000000 0.000000000
                    CHANNELS 3 Zrotation Yrotation Xrotation
                    End Site
                    {
                      OFFSET 0.0 5.0 0.0
                    }
                  }
                  JOINT LeftHandThumb1
                  {
                    OFFSET 2.784460000 -1.856305278 4.640771642
                    CHANNELS 3 Zrotation Yrotation Xrotation
                    End Site
                    {
                      OFFSET 0.0 5.0 0.0
                    }
                  }
                }
              }
            }
          }
        }
      }
    }
  }
  JOINT RightUpLeg
  {
    OFFSET -9.491820000 -2.772890000 0.000000000
    CHANNELS 3 Zrotation Yrotation Xrotation
    JOINT RightLeg
    {
      OFFSET 0.000000000 -41.211800000 0.000000000
      CHANNELS 3 Zrotation Yrotation Xrotation
      JOINT RightFoot
      {
        OFFSET -0.000000000 -45.609100000 0.000000000
        CHANNELS 3 Zrotation Yrotation Xrotation
        JOINT RightToeBase
        {
          OFFSET -0.000000000 -5.847492523 16.065826618
          CHANNELS 3 Zrotation Yrotation Xrotation
          End Site
          {
            OFFSET 0.0 5.0 0.0
          }
        }
      }
    }
  }
  JOINT LeftUpLeg
  {
    OFFSET 9.491820000 -2.772890000 0.000000000
    CHANNELS 3 Zrotation Yrotation Xrotation
    JOINT LeftLeg
    {
      OFFSET 0.000000000 -41.211800000 0.000000000
      CHANNELS 3 Zrotation Yrotation Xrotation
      JOINT LeftFoot
      {
        OFFSET -0.000000000 -45.609100000 0.000000000
        CHANNELS 3 Zrotation Yrotation Xrotation
        JOINT LeftToeBase
        {
          OFFSET -0.000000000 -5.847492523 16.065826618
          CHANNELS 3 Zrotation Yrotation Xrotation
          End Site
          {
            OFFSET 0.0 5.0 0.0
          }
        }
      }
    }
  }
}
MOTION
Frames: 8
Frame Time: 0.050000000000
-0.049942849 88.530139959 0.047582181 -1.289827920 -4.370456088 -1.420980169 -0.180362193 -0.075545287 4.384471898 0.408495944 -0.074406467 2.478146420 -0.369635454 2.378387197 4.084822724 -0.612117722 0.286208960 0.797884338 6.473412514 -9.828642537 5.698248309 1.434616350 -21.763533458 -12.701682124 -12.451157709 8.535585690 -5.367709414 38.600822416 40.142878447 -40.539241439 179.727001005 64.008104567 179.525869228 -12.374492939 4.296009350 -5.783593365 -0.000966076 0.002408526 -0.003284640 -5.179544160 0.861505870 18.863904667 13.274438184 6.037395026 2.426136117 -83.404776738 -68.475416736 22.515730522 179.293027166 -46.513691865 -179.443723120 9.282942917 10.395990948 -7.983947880 0.004201102 0.000473926 0.000472045 -4.990508877 -0.858973990 -19.459947598 -16.145203243 -2.868255598 -24.521789552 -0.393589345 0.168218226 37.247360228 17.600839237 7.175330717 -7.795768823 0.001811264 -0.077331952 2.370753158 13.694292132 -3.951690347 -5.316863652 0.090750265 -0.018137786 37.974368048 -14.192674362 -3.899188565 -30.683158119 -0.005614075 0.170524069 4.056295406
-0.037999192 88.536470011 0.041014716 -1.280146399 -4.399240271 -1.433942050 -0.183663686 -0.077122183 4.375406878 0.410829317 -0.075992689 2.469892493 -0.373513186 2.364897522 4.110168183 -0.613321015 0.283965267 0.807402352 6.453525870 -9.827430749 5.724527833 1.420650166 -21.747196907 -12.704088538 -12.433909502 8.530207399 -5.393991984 38.642296094 40.245423183 -40.468156356 179.635951071 64.068495435 179.454330496 -12.368425857 4.291288234 -5.746877444 -0.000961252 0.002356975 -0.003330908 -5.182414797 0.861625694 18.854740099 13.286538879 6.062136131 2.398843296 -83.397428015 -68.463747768 22.523969922 179.284172832 -46.532170824 -179.447085332 9.296705106 10.393843511 -7.938978809 0.004270489 0.000443648 0.000431103 -4.989397332 -0.858998644 -19.464060040 -16.160255255 -2.833863205 -24.505069155 -0.394010311 0.169780292 37.208464621 17.611643195 7.164726439 -7.771492698 0.001811264 -0.077331952 2.370753158 13.677644288 -3.911582377 -5.291073670 0.091355308 -0.019607549 37.956591647 -14.181548165 -3.904406014 -30.670269142 -0.005614075 0.170524069 4.056295406
-0.025404180 88.542127312 0.032503517 -1.270181481 -4.428589838 -1.447253407 -0.188097441 -0.078197500 4.367507251 0.413705208 -0.077346564 2.462160807 -0.377407233 2.352826558 4.137511586 -0.613672511 0.282145091 0.816512378 6.433819582 -9.826890018 5.742905658 1.406840721 -21.729362180 -12.706564136 -12.417496926 8.523010072 -5.418285883 38.686461806 40.349222176 -40.391597563 179.555486186 64.129287416 179.391437447 -12.353288181 4.288277706 -5.704501456 -0.000956706 0.002311593 -0.003366599 -5.185155554 0.861697857 18.845093062 13.298144720 6.086342614 2.372232013 -83.380686695 -68.454803924 22.525772390 179.278522749 -46.552452798 -179.453634081 9.312511129 10.392454616 -7.893209773 0.004345083 0.000413668 0.000405855 -4.988937164 -0.859076925 -19.466862310 -16.174210352 -2.799307562 -24.490369430 -0.397048308 0.173043059 37.170691304 17.624246913 7.154214763 -7.746174693 0.001811264 -0.077331952 2.370753158 13.661337033 -3.870477146 -5.268494593 0.091134108 -0.020281961 37.943423288 -14.169470640 -3.910728724 -30.658137945 -0.005614075 0.170524069 4.056295406
-0.012547692 88.547032324 0.022727835 -1.259848689 -4.458792765 -1.461095078 -0.193545506 -0.078791012 4.361070022 0.417113903 -0.078473671 2.455093847 -0.381326408 2.342080193 4.166375441 -0.613149296 0.280725274 0.825063907 6.415035317 -9.827522291 5.753114729 1.393595072 -21.710897879 -12.708865636 -12.402086542 8.514101033 -5.440147213 38.730978613 40.453075068 -40.309955848 179.487309394 64.190449294 179.338490598 -12.329449054 4.286867892 -5.657401617 -0.000952168 0.002272361 -0.003392152 -5.187690383 0.861717290 18.835155673 13.308361442 6.109957000 2.347232140 -83.351685587 -68.449441446 22.519985653 179.275966988 -46.574730311 -179.463102261 9.331133114 10.392721259 -7.847620027 0.004423533 0.000383914 0.000398139 -4.989132950 -0.859204668 -19.468265526 -16.186440268 -2.765371505 -24.477757404 -0.403374127 0.178423969 37.135126331 17.638424511 7.145041046 -7.720447886 0.001811264 -0.077331952 2.370753158 13.645487765 -3.829268723 -5.247970669 0.089675016 -0.019846757 37.934106900 -14.156686930 -3.917375548 -30.647141352 -0.005614075 0.170524069 4.056295406
0.000176196 88.551124707 0.012400920 -1.249084964 -4.490076523 -1.475612252 -0.199878926 -0.078935114 4.356331880 0.421025368 -0.079385254 2.448805848 -0.385281725 2.332525446 4.196260872 -0.611745792 0.279672669 0.832921995 6.397890689 -9.829792951 5.755064764 1.381290226 -21.692688629 -12.710755778 -12.387821323 8.503610611 -5.459162024 38.773501607 40.555774534 -40.223808957 179.432842162 64.251945746 179.296561940 -12.297441716 4.286953444 -5.606601529 -0.000947389 0.002239105 -0.003408233 -5.189943697 0.861679873 18.825134790 13.316352181 6.132953231 2.324735600 -83.307937527 -68.448393219 22.505670439 179.276351416 -46.599112714 -179.475164828 9.353217814 10.395473167 -7.803135781 0.004504350 0.000354236 0.000409372 -4.989973838 -0.859376580 -19.468214686 -16.196358678 -2.732799552 -24.467248070 -0.413569688 0.186282322 37.102794301 17.653927111 7.138359100 -7.694975756 0.001811264 -0.077331952 2.370753158 13.630228454 -3.788835187 -5.228335848 0.086599311 -0.018015779 37.927801812 -14.143444512 -3.923606622 -30.637616795 -0.005614075 0.170524069 4.056295406
0.012379399 88.554364435 0.002249540 -1.237852223 -4.522596506 -1.490907874 -0.206960872 -0.078673737 4.353462890 0.425389660 -0.080097709 2.443380344 -0.389285555 2.323996192 4.226658593 -0.609474010 0.278945384 0.839970117 6.383060395 -9.834115867 5.748843270 1.370263546 -21.675610665 -12.712010343 -12.374818620 8.491689550 -5.474955744 38.811746316 40.656128439 -40.133916687 179.393190345 64.313727961 179.266469348 -12.257950810 4.288437937 -5.553187928 -0.000942150 0.002211509 -0.003415709 -5.191842308 0.861582558 18.815247153 13.321361612 6.155334209 2.305572788 -83.247409939 -68.452246049 22.482123713 179.279482775 -46.625619520 -179.489447334 9.379263631 10.401447601 -7.760608343 0.004585942 0.000324415 0.000440510 -4.991433852 -0.859586384 -19.466690142 -16.203437829 -2.702280180 -24.458805589 -0.428107687 0.196908268 37.074630995 17.670487592 7.135196061 -7.670435734 0.001811264 -0.077331952 2.370753158 13.615703571 -3.750017908 -5.208453116 0.081573577 -0.014539812 37.923610713 -14.129987870 -3.928745699 -30.629853999 -0.005614075 0.170524069 4.056295406
0.023689833 88.556732401 -0.007006822 -1.226140224 -4.556426513 -1.507037218 -0.214649900 -0.078061000 4.352561988 0.430137873 -0.080631943 2.438868557 -0.393350717 2.316299738 4.257060051 -0.606363400 0.278494238 0.846112558 6.371158356 -9.840839826 5.734712307 1.360804218 -21.660507662 -12.712424884 -12.363168719 8.478506018 -5.487201829 38.843552223 40.752981410 -40.041210200 179.369117666 64.375724816 179.248757013 -12.211796254 4.291237731 -5.498285046 -0.000936264 0.002189128 -0.003415622 -5.193317344 0.861423464 18.805714230 13.322737923 6.177128632 2.290490497 -83.168588481 -68.461421952 22.448896761 179.285134431 -46.654176184 -179.505535514 9.409601572 10.411266682 -7.720794444 0.004666654 0.000294173 0.000492012 -4.993472565 -0.859826983 -19.463708217 -16.207223580 -2.674429590 -24.452345518 -0.447334532 0.210513865 37.051457862 17.687825913 7.136420549 -7.647502297 0.001811264 -0.077331952 2.370753158 13.602067442 -3.713601844 -5.187252583 0.074320617 -0.009214498 37.920608412 -14.116553062 -3.932200486 -30.624087755 -0.005614075 0.170524069 4.056295406
0.033761024 88.558230519 -0.014676581 -1.213968675 -4.591551573 -1.524003807 -0.222803229 -0.077159608 4.353654381 0.435183595 -0.081012614 2.435288635 -0.397489533 2.309224045 4.286968470 -0.602460280 0.278264393 0.851276288 6.362721287 -9.850236775 5.713101122 1.353145995 -21.648167395 -12.711820968 -12.352934032 8.464242302 -5.495629437 38.866943828 40.845235217 -39.946775788 179.361027274 64.437834995 179.243682298 -12.159914052 4.295285114 -5.443028183 -0.000929590 0.002171407 -0.003409153 -5.194306077 0.861201943 18.796756899 13.319952066 6.198387185 2.280131909 -83.070528959 -68.476164084 22.405808570 179.293052651 -46.684612460 -179.522985681 9.444380685 10.425417774 -7.684339243 0.004744801 0.000263191 0.000563825 -4.996036119 -0.860090660 -19.459320932 -16.207348395 -2.649777331 -24.447738069 -0.471457172 0.227226297 37.033959187 17.705654956 7.142715135 -7.626829992 0.001811264 -0.077331952 2.370753158 13.589481172 -3.680297339 -5.163767327 0.064628599 -0.001887134 37.917870686 -14.103362318 -3.933480402 -30.620491967 -0.005614075 0.170524069 4.056295406
